<?xml version="1.0" standalone="no"?>
<!DOCTYPE svg PUBLIC "-//W3C//DTD SVG 20010904//EN"
 "http://www.w3.org/TR/2001/REC-SVG-20010904/DTD/svg10.dtd">
<svg version="1.0" xmlns="http://www.w3.org/2000/svg"
 width="416.000000pt" height="416.000000pt" viewBox="0 0 416.000000 416.000000"
 preserveAspectRatio="xMidYMid meet">
<metadata>
Created by potrace 1.16, written by Peter Selinger 2001-2019
</metadata>
<g transform="translate(0.000000,416.000000) scale(0.100000,-0.100000)"
fill="#000000" stroke="none">
<path d="M0 2080 l0 -2080 2080 0 2080 0 0 2080 0 2080 -2080 0 -2080 0 0
-2080z m2430 1959 c51 -8 60 -14 126 -82 104 -110 174 -259 174 -374 0 -29 35
-115 136 -333 232 -505 238 -521 204 -641 -24 -86 -25 -125 -6 -197 25 -91 72
-174 163 -285 143 -176 156 -196 150 -241 -7 -50 -50 -103 -115 -141 -63 -36
-72 -61 -48 -125 31 -80 31 -87 -3 -125 -33 -38 -36 -56 -20 -124 8 -38 7 -48
-9 -70 -44 -60 -53 -89 -51 -174 2 -98 -11 -150 -51 -205 -61 -85 -171 -119
-345 -107 -55 3 -134 13 -175 22 -86 17 -117 11 -213 -39 -109 -58 -164 -128
-250 -320 -48 -104 -125 -215 -215 -310 -115 -120 -121 -123 -195 -108 -187
39 -416 127 -585 226 -147 86 -377 263 -361 278 2 2 40 32 84 67 321 252 586
655 685 1044 13 50 26 94 30 98 4 4 20 1 36 -8 64 -33 160 -7 205 56 22 32 40
129 23 129 -5 -1 -21 -19 -37 -41 -34 -50 -104 -95 -169 -109 -28 -6 -53 -9
-55 -7 -2 2 8 79 22 170 14 91 25 170 25 176 0 6 32 27 72 47 302 152 582 402
771 689 91 138 124 212 198 438 l69 209 -15 69 c-31 153 -134 286 -307 400
-51 33 -95 63 -97 65 -5 5 67 -3 149 -17z m-667 -89 c78 -95 146 -146 295
-220 140 -68 226 -126 287 -191 l40 -42 -45 35 c-69 55 -163 102 -295 148 -66
23 -151 60 -188 81 -70 42 -175 134 -228 200 l-30 38 33 10 c63 18 71 14 131
-59z m-795 -363 c164 -109 270 -138 582 -162 265 -21 582 -66 567 -81 -3 -3
-33 0 -68 6 -35 6 -228 15 -429 20 -457 11 -498 19 -745 154 l-89 49 44 38
c24 21 49 35 54 31 6 -4 44 -29 84 -55z m697 -588 c-153 -43 -303 -135 -544
-334 -210 -173 -299 -214 -478 -223 -74 -3 -123 0 -178 13 -81 18 -258 100
-289 134 -17 19 -17 22 -1 70 l16 50 62 -46 c133 -97 258 -143 394 -143 146 0
249 41 423 170 239 177 409 272 552 310 96 25 133 24 43 -1z m-276 -526 c-234
-281 -376 -405 -579 -504 -214 -105 -473 -128 -673 -60 l-52 18 -3 56 c-2 32
0 57 3 57 3 0 23 -9 45 -20 88 -45 188 -65 325 -64 161 1 244 22 401 99 144
70 290 180 428 321 102 104 141 140 105 97z"/>
<path d="M2654 2706 c-28 -13 -54 -28 -57 -33 -3 -4 36 -9 86 -9 71 -1 109 -7
168 -28 41 -14 89 -26 105 -26 l29 0 -40 36 c-95 84 -195 105 -291 60z"/>
<path d="M2810 2506 c-72 -25 -124 -51 -187 -93 l-42 -29 82 -11 c45 -6 109
-21 142 -32 32 -12 60 -21 61 -21 4 0 16 201 13 204 -2 2 -33 -6 -69 -18z
m-30 -90 c0 -9 -8 -12 -25 -8 -28 5 -24 22 6 22 10 0 19 -6 19 -14z"/>
<path d="M3127 1852 c-21 -23 -21 -38 -1 -46 40 -15 114 4 114 30 0 34 -86 46
-113 16z"/>
<path d="M2912 1442 c-13 -4 -24 -11 -24 -17 -2 -19 67 -45 120 -45 56 0 127
23 118 39 -15 24 -156 39 -214 23z"/>
<path d="M1860 1187 c0 -3 55 -35 123 -70 67 -35 171 -90 231 -122 60 -32 105
-52 101 -44 -46 78 -165 173 -264 210 -53 19 -191 39 -191 26z"/>
</g>
</svg>
